<svg xmlns="http://www.w3.org/2000/svg" xmlns:xlink="http://www.w3.org/1999/xlink" viewBox="0 0 77.38 88.32">
    <defs>
        <style>.cls-1{fill:none;}.cls-2{fill:fill-current;}.cls-3{clip-path:url(#clip-path);}</style>
        <clipPath id="clip-path" transform="translate(0 0)">
            <rect class="cls-1" width="77.38" height="88.32"/>
        </clipPath>
    </defs>
    <g id="Ebene_2" data-name="Ebene 2">
        <g id="Ebene_1-2" data-name="Ebene 1">
            <polygon class="cls-2"
                     points="14.18 36.74 12.48 33.61 27.84 25.27 27.86 19.03 31.42 19.04 31.4 26.33 30.47 27.89 14.18 36.74"/>
            <g class="cls-3">
                <path class="cls-2" d="M38.56,72.1H35v-33L23.25,30.75l2.08-2.9,12.48,8.91a1.8,1.8,0,0,1,.75,1.45Z"
                      transform="translate(0 0)"/>
            </g>
            <polygon class="cls-2"
                     points="0.94 21.28 0 22.85 0 65.47 0.89 67.01 37.8 88.32 39.67 88.27 43.79 85.56 40.44 83.5 38.63 84.68 3.57 64.44 3.57 23.92 11.54 19.65 11.54 58.6 15.11 58.6 15.11 17.17 11.9 15.42 0.94 21.28"/>
            <g class="cls-3">
                <path class="cls-2"
                      d="M36.77,73a.89.89,0,1,0,.9.89.89.89,0,0,0-.9-.89m0,3.57a2.68,2.68,0,1,1,2.68-2.68,2.68,2.68,0,0,1-2.68,2.68"
                      transform="translate(0 0)"/>
                <path class="cls-2"
                      d="M13.24,59.29a.89.89,0,1,0,.89.89.89.89,0,0,0-.89-.89m0,3.57a2.68,2.68,0,1,1,2.67-2.68,2.68,2.68,0,0,1-2.67,2.68"
                      transform="translate(0 0)"/>
                <path class="cls-2"
                      d="M29.64,17a.89.89,0,1,0,.89.89.89.89,0,0,0-.89-.89m0,3.57a2.68,2.68,0,1,1,2.68-2.68,2.68,2.68,0,0,1-2.68,2.68"
                      transform="translate(0 0)"/>
            </g>
            <polygon class="cls-2"
                     points="37.8 0 16.73 12.16 20.11 14.33 38.69 3.6 73.81 23.88 73.81 64.42 49.24 78 48.99 29.58 45.42 29.6 45.68 79.9 49.11 82.14 76.46 67.03 77.38 65.47 77.38 22.85 76.49 21.31 39.58 0 37.8 0"/>
            <polygon class="cls-2"
                     points="48.38 46.89 46.57 43.81 60.2 35.81 60.22 26.54 47.46 18.89 49.29 15.83 62.92 24 63.79 25.54 63.77 36.83 62.88 38.37 48.38 46.89"/>
            <g class="cls-3">
                <path class="cls-2" d="M68.87,57.46H65.31V46.36l-8.05-4.83,1.83-3.06L68,43.82a1.79,1.79,0,0,1,.86,1.53Z"
                      transform="translate(0 0)"/>
                <path class="cls-2"
                      d="M47.15,26.8a.9.9,0,1,0,.89.9.9.9,0,0,0-.89-.9m0,3.57a2.68,2.68,0,1,1,2.67-2.67,2.68,2.68,0,0,1-2.67,2.67"
                      transform="translate(0 0)"/>
                <path class="cls-2"
                      d="M47,15.77a.89.89,0,1,0,.89.89.89.89,0,0,0-.89-.89m0,3.56a2.68,2.68,0,1,1,2.68-2.67A2.68,2.68,0,0,1,47,19.33"
                      transform="translate(0 0)"/>
                <path class="cls-2"
                      d="M67.09,57.86a.89.89,0,1,0,.89.89.89.89,0,0,0-.89-.89m0,3.57a2.68,2.68,0,1,1,2.67-2.68,2.68,2.68,0,0,1-2.67,2.68"
                      transform="translate(0 0)"/>
            </g>
        </g>
    </g>
</svg>
